<?xml version="1.0" encoding="iso-8859-1"?>
<!-- Uploaded to: SVG Repo, www.svgrepo.com, Generator: SVG Repo Mixer Tools -->
<svg height="800px" width="800px" version="1.1" id="Layer_1" xmlns="http://www.w3.org/2000/svg" xmlns:xlink="http://www.w3.org/1999/xlink" 
	 viewBox="0 0 512 512" xml:space="preserve">
<path style="fill:#A9B9BB;" d="M439.242,482.358H72.758c-23.812,0-43.116-19.304-43.116-43.116V72.758
	c0-23.812,19.304-43.116,43.116-43.116h366.484c23.812,0,43.116,19.304,43.116,43.116v366.484
	C482.358,463.054,463.054,482.358,439.242,482.358z"/>
<path style="fill:#74843A;" d="M282.167,208.358l81.283,284.489c1.585,5.547-2.581,11.069-8.349,11.069H190.847
	c-7.648,0-13.17-7.32-11.069-14.673l80.253-280.884c1.412-4.942,5.928-8.349,11.069-8.349l0,0
	C276.239,200.009,280.756,203.416,282.167,208.358z"/>
<path style="fill:#8CA055;" d="M146.526,104.682l100.903,353.159c1.967,6.886-3.202,13.74-10.364,13.74H33.161
	c-9.494,0-16.348-9.087-13.74-18.215l99.623-348.683c1.753-6.134,7.36-10.364,13.74-10.364l0,0
	C139.166,94.317,144.773,98.547,146.526,104.682z"/>
<path style="fill:#C5EAD4;" d="M312.852,280.442c2.92,10.222-2.051,21.211-11.565,25.561c-3.955,1.81-8.177,2.755-12.548,2.811
	c-0.132,0.002-0.262,0.002-0.392,0.002c-8.104,0-15.793-3.193-21.693-9.018c-3.606-3.56-6.3-7.928-7.898-12.661
	c-0.913,0.081-1.831,0.121-2.757,0.121l-0.258-0.001c-6.697-0.05-12.875-3.185-16.929-8.601c-4.12-5.505-5.401-12.449-3.515-19.051
	l15.404-53.914c2.588-9.059,10.976-15.385,20.396-15.385c9.42,0,17.808,6.326,20.396,15.385L312.852,280.442z M156.89,101.72
	L156.89,101.72c-3.362-11.765-14.641-19.351-26.82-18.035c-10.176,1.097-18.617,8.338-21.505,18.446L64.542,256.207
	c-2.922,10.229-0.942,20.99,5.434,29.522c6.286,8.413,15.878,13.292,26.308,13.385l0.427,0.002
	c25.094,0,45.511-20.416,45.511-45.511V241.66c0-0.083,0.006-0.144,0.097-0.235c0.089-0.089,0.257-0.196,0.439-0.196l0,0
	l0.262,0.001c12.4,0,23.99-4.899,32.632-13.796c8.177-8.417,11.207-20.822,7.906-32.372L156.89,101.72z M438.42,314.139
	c12.831-7.357,21.482-21.178,21.482-37.03l0,0c0-23.564-19.102-42.666-42.666-42.666l0,0c-23.564,0-42.666,19.102-42.666,42.666l0,0
	c0,15.852,8.651,29.673,21.482,37.03c-18.866,7.253-32.261,25.535-32.261,46.956v6.287c0,27.781,22.52,50.302,50.302,50.302h6.286
	c27.781,0,50.302-22.52,50.302-50.302v-6.288C470.681,339.674,457.285,321.393,438.42,314.139z"/>
<g>
	<path style="fill:#EAFFFF;" d="M149.979,184.281c3.301,11.551,0.271,23.956-7.906,32.372c-8.643,8.896-20.232,13.796-32.632,13.796
		l-0.262-0.001l0,0c-0.182,0-0.349,0.107-0.439,0.196c-0.091,0.089-0.097,0.152-0.097,0.235v11.946
		c0,22.251-16.055,40.811-37.187,44.735c-0.509-0.593-1.007-1.199-1.48-1.831c-6.376-8.533-8.356-19.293-5.434-29.522
		l44.022-154.076c2.016-7.058,6.745-12.709,12.877-15.856c0.76,1.468,1.399,3.02,1.869,4.665l0,0L149.979,184.281z M269.932,205.692
		c-1.522-5.324-5.054-9.69-9.615-12.397c-4.561,2.707-8.094,7.073-9.615,12.397l-15.404,53.914
		c-1.886,6.602-0.606,13.546,3.515,19.051c4.053,5.415,10.231,8.551,16.929,8.601l0.258,0.001c0.925,0,1.844-0.04,2.757-0.121
		c1.597,4.733,4.292,9.101,7.898,12.661c3.202,3.163,6.935,5.541,10.973,7.062c0.706-0.263,1.407-0.542,2.096-0.858
		c9.513-4.35,14.485-15.34,11.565-25.561L269.932,205.692z M406.981,314.139c12.831-7.357,21.482-21.178,21.482-37.03l0,0
		c0-18.011-11.166-33.404-26.947-39.664c-15.783,6.26-26.947,21.653-26.947,39.664l0,0c0,15.852,8.651,29.673,21.482,37.03
		c-18.866,7.253-32.261,25.535-32.261,46.956v6.287c0,23.439,16.03,43.133,37.726,48.716c21.696-5.585,37.726-25.279,37.726-48.716
		v-6.288C439.242,339.674,425.847,321.393,406.981,314.139z"/>
	<path style="fill:#EAFFFF;" d="M493.137,471.579v32.337l0,0H245.221H18.863l0,0c0-29.765,24.13-53.895,53.895-53.895h131.551
		c22.544,0,44.212-8.807,60.3-24.601c11.664-11.452,27.648-18.515,45.287-18.515h118.568
		C464.181,406.905,493.137,435.861,493.137,471.579z"/>
</g>
<g>
	<path style="fill:#C5EAD4;" d="M493.137,503.916H245.221H109.592c8.318-19.031,27.299-32.337,49.398-32.337H290.54
		c22.544,0,44.212-8.807,60.3-24.601c11.664-11.452,27.648-18.515,45.287-18.515h80.529c10.244,11.443,16.481,26.549,16.481,43.116
		L493.137,503.916L493.137,503.916z"/>
	<path style="fill:#C5EAD4;" d="M503.916,495.832c0,4.465-3.62,8.084-8.084,8.084H16.168c-4.465,0-8.084-3.62-8.084-8.084
		c0-4.465,3.62-8.084,8.084-8.084h479.663C500.296,487.747,503.916,491.367,503.916,495.832z"/>
</g>
<path d="M43.116,181.693v-1.146c0-4.466,3.618-8.084,8.084-8.084s8.084,3.618,8.084,8.084v1.146c0,4.466-3.618,8.084-8.084,8.084
	S43.116,186.158,43.116,181.693z M493.137,296.421c4.466,0,8.084-3.618,8.084-8.084v-1.146c0-4.466-3.618-8.084-8.084-8.084
	s-8.084,3.618-8.084,8.084v1.146C485.053,292.803,488.671,296.421,493.137,296.421z M406.737,17.314
	c4.466,0,8.084-3.618,8.084-8.084V8.084c0-4.466-3.618-8.084-8.084-8.084s-8.084,3.618-8.084,8.084V9.23
	C398.653,13.695,402.271,17.314,406.737,17.314z M180.547,48.505c4.466,0,8.084-3.618,8.084-8.084v-1.146
	c0-4.466-3.618-8.084-8.084-8.084c-4.466,0-8.084,3.618-8.084,8.084v1.146C172.463,44.887,176.082,48.505,180.547,48.505z
	 M234.442,123.958c4.466,0,8.084-3.618,8.084-8.084v-1.146c0-4.466-3.618-8.084-8.084-8.084s-8.084,3.618-8.084,8.084v1.146
	C226.358,120.339,229.976,123.958,234.442,123.958z M353.01,91.621c4.466,0,8.084-3.618,8.084-8.084v-1.146
	c0-4.466-3.618-8.084-8.084-8.084c-4.466,0-8.084,3.618-8.084,8.084v1.146C344.926,88.003,348.545,91.621,353.01,91.621z
	 M353.01,210.189c4.466,0,8.084-3.618,8.084-8.084v-1.146c0-4.466-3.618-8.084-8.084-8.084c-4.466,0-8.084,3.618-8.084,8.084v1.146
	C344.926,206.571,348.545,210.189,353.01,210.189z M450.021,114.325c4.466,0,8.084-3.618,8.084-8.084v-1.146
	c0-4.466-3.618-8.084-8.084-8.084s-8.084,3.618-8.084,8.084v1.146C441.937,110.705,445.555,114.325,450.021,114.325z
	 M288.337,48.505c4.466,0,8.084-3.618,8.084-8.084v-1.146c0-4.466-3.618-8.084-8.084-8.084s-8.084,3.618-8.084,8.084v1.146
	C280.253,44.887,283.871,48.505,288.337,48.505z M94.316,38.872c4.466,0,8.084-3.618,8.084-8.084v-1.146
	c0-4.466-3.618-8.084-8.084-8.084c-4.466,0-8.084,3.618-8.084,8.084v1.146C86.232,35.253,89.85,38.872,94.316,38.872z
	 M102.4,396.126v-1.146c0-4.466-3.618-8.084-8.084-8.084c-4.466,0-8.084,3.618-8.084,8.084v1.146c0,4.466,3.618,8.084,8.084,8.084
	C98.782,404.211,102.4,400.592,102.4,396.126z M429.642,281.376c4.466,0,8.084-3.618,8.084-8.084v-1.146
	c0-4.466-3.618-8.084-8.084-8.084c-4.466,0-8.084,3.618-8.084,8.084v1.146C421.558,277.757,425.177,281.376,429.642,281.376z
	 M406.737,264.062c-4.466,0-8.084,3.618-8.084,8.084v1.146c0,4.466,3.618,8.084,8.084,8.084s8.084-3.618,8.084-8.084v-1.146
	C414.821,267.681,411.202,264.062,406.737,264.062z M10.779,276.413v1.146c0,4.466,3.618,8.084,8.084,8.084s8.084-3.618,8.084-8.084
	v-1.146c0-4.466-3.618-8.084-8.084-8.084S10.779,271.947,10.779,276.413z M177.853,343.377v-1.146c0-4.466-3.618-8.084-8.084-8.084
	c-4.466,0-8.084,3.618-8.084,8.084v1.146c0,4.466,3.618,8.084,8.084,8.084C174.234,351.462,177.853,347.842,177.853,343.377z
	 M503.916,172.463c-4.466,0-8.084,3.618-8.084,8.084v1.146c0,4.466,3.618,8.084,8.084,8.084s8.084-3.618,8.084-8.084v-1.146
	C512,176.082,508.382,172.463,503.916,172.463z M8.084,123.958c4.466,0,8.084-3.618,8.084-8.084v-1.146
	c0-4.466-3.618-8.084-8.084-8.084S0,110.262,0,114.728v1.146C0,120.339,3.618,123.958,8.084,123.958z M137.432,194.021
	c-4.466,0-8.084,3.618-8.084,8.084v1.146c0,4.466,3.618,8.084,8.084,8.084c4.466,0,8.084-3.618,8.084-8.084v-1.146
	C145.516,197.64,141.897,194.021,137.432,194.021z M512,503.916c0,4.466-3.618,8.084-8.084,8.084H308.502
	c-4.466,0-8.084-3.618-8.084-8.084s3.618-8.084,8.084-8.084h176.551v-24.253c0-31.203-25.387-56.589-56.589-56.589
	c-4.466,0-8.084-3.618-8.084-8.084s3.618-8.084,8.084-8.084c6.038,0,11.906,0.739,17.52,2.133
	c10.447-7.976,16.614-20.348,16.614-33.572v-6.287c0-17.345-10.882-33.183-27.079-39.411c-2.912-1.119-4.92-3.815-5.159-6.925
	c-0.24-3.111,1.332-6.081,4.039-7.634c10.746-6.16,17.42-17.662,17.42-30.017c0-19.068-15.514-34.582-34.583-34.582
	c-19.068,0.001-34.582,15.515-34.582,34.583c0,12.355,6.674,23.857,17.419,30.017c2.707,1.552,4.279,4.523,4.039,7.634
	c-0.239,3.111-2.246,5.807-5.159,6.925c-16.195,6.227-27.078,22.065-27.078,39.41v6.287c0,12.059,5.096,23.422,14.04,31.439h16.95
	c4.466,0,8.084,3.618,8.084,8.084s-3.618,8.084-8.084,8.084h-63.789c-0.122,0.002-0.246,0.002-0.368,0h-28.812
	c-14.912,0-28.984,5.753-39.622,16.199c-17.681,17.358-41.108,26.917-65.964,26.917H98.986c-4.466,0-8.084-3.618-8.084-8.084
	s3.618-8.084,8.084-8.084h105.322c9.716,0,19.166-1.762,27.977-5.132l-56.156-198.932c-7.5,5.924-16.355,9.679-25.823,10.955v4.778
	c0,29.553-24.042,53.595-53.595,53.595l-0.468-0.002c-8.95-0.08-17.383-2.973-24.319-8.173L27.195,455.585
	c-0.473,1.655-0.255,3.376,0.612,4.845c0.103,0.175,0.213,0.344,0.333,0.508c11.281-11.707,27.114-19.001,44.617-19.001
	c4.466,0,8.084,3.618,8.084,8.084s-3.618,8.084-8.084,8.084c-22.502,0-41.266,16.309-45.096,37.726h252.261
	c4.466,0,8.084,3.618,8.084,8.084S284.389,512,279.923,512H8.084C3.618,512,0,508.382,0,503.916s3.618-8.084,8.084-8.084h3.22
	c1.016-7.781,3.484-15.112,7.118-21.713c-1.776-1.558-3.317-3.4-4.537-5.467c-3.146-5.327-3.941-11.545-2.237-17.508L59.422,283.93
	c-4.559-9.233-5.552-19.799-2.655-29.944l44.023-154.077c3.795-13.287,14.948-22.811,28.412-24.263
	c16.088-1.735,31.012,8.292,35.46,23.853l26.669,93.342c2.903,10.16,1.843,20.867-2.654,29.977l29.229,103.544l12.892-45.123
	c-4.406-7.135-5.608-15.684-3.275-23.853l15.405-53.914c3.574-12.51,15.158-21.249,28.169-21.249
	c13.011,0,24.595,8.737,28.17,21.249l21.356,74.75c0.001,0,0.001,0,0.001,0c2.358,8.26,0.951,16.892-3.284,23.819l27.652,96.78
	h19.884c-5.935-9.275-9.172-20.137-9.172-31.439v-6.287c0-19.432,9.877-37.498,25.535-48.237
	c-9.311-9.394-14.756-22.221-14.756-35.749c0-27.984,22.766-50.751,50.751-50.751s50.752,22.766,50.752,50.751
	c0,13.528-5.448,26.355-14.756,35.749c15.658,10.738,25.535,28.805,25.535,48.237v6.287c0,15.079-5.796,29.355-15.927,40.084
	c22.83,12.289,38.383,36.419,38.383,64.113v24.253h2.695C508.382,495.832,512,499.45,512,503.916z M175.786,197.283l-26.669-93.341
	c-2.278-7.972-9.93-13.116-18.18-12.219c-6.89,0.742-12.62,5.7-14.599,12.629L72.316,258.428
	c-1.955,6.844-1.025,14.001,2.529,20.045c0.125,0.189,0.243,0.382,0.351,0.58c0.389,0.626,0.808,1.238,1.256,1.838
	c4.763,6.374,12.017,10.07,19.905,10.14l0.395,0.002c20.596,0,37.387-16.789,37.387-37.427V241.66c0-2.267,0.887-4.391,2.499-5.984
	c1.565-1.585,3.821-2.532,6.122-2.532l0.328,0.002c10.131,0,19.661-4.028,26.767-11.344
	C176.021,215.455,178.293,206.06,175.786,197.283z M245.287,273.812c0.134,0.18,0.272,0.355,0.413,0.526
	c0.075,0.085,0.151,0.174,0.223,0.262c2.51,2.891,6.059,4.544,9.881,4.572l0.231,0.001c0.652,0,1.342-0.03,2.017-0.089
	c0.238-0.021,0.475-0.03,0.71-0.03c3.439,0,6.537,2.19,7.655,5.498c1.209,3.582,3.256,6.864,5.919,9.494
	c4.368,4.312,10.055,6.686,16.012,6.686l0.263-0.001c3.264-0.042,6.39-0.742,9.314-2.08c1.628-0.744,3.039-1.803,4.194-3.083
	c0.152-0.197,0.314-0.386,0.484-0.568c2.684-3.337,3.733-7.945,2.477-12.336l-21.356-74.75c-1.601-5.606-6.793-9.522-12.623-9.522
	s-11.021,3.916-12.623,9.522l-15.404,53.914C241.886,265.979,242.692,270.348,245.287,273.812z M328.177,398.821l-24.318-85.115
	c-4.751,2.05-9.799,3.124-15.014,3.192l-0.497,0.003c-10.238,0-19.958-4.03-27.372-11.348c-3.036-2.999-5.592-6.499-7.547-10.313
	c-3.201-0.267-6.285-1.044-9.161-2.283l-17.635,61.725c-0.111,0.39-0.249,0.765-0.412,1.124l20.747,73.498
	c4.259-2.787,8.272-6.013,11.978-9.65c13.681-13.435,31.775-20.832,50.95-20.832H328.177z M266.779,334.147
	c-4.466,0-8.084,3.618-8.084,8.084v1.146c0,4.466,3.618,8.084,8.084,8.084s8.084-3.618,8.084-8.084v-1.146
	C274.863,337.766,271.245,334.147,266.779,334.147z"/>
</svg>